<svg width="23" height="24" viewBox="0 0 23 24" fill="none" xmlns="http://www.w3.org/2000/svg">
<path d="M19.6279 15.4863L18.0466 13.8363C17.5753 13.3484 16.939 13.0733 16.2751 13.0704C15.6112 13.0675 14.9727 13.3369 14.4974 13.8206C14.2438 14.0867 13.9092 14.2523 13.5512 14.2889C13.1932 14.3254 12.8342 14.2306 12.536 14.0208C11.3588 13.2011 10.3475 12.1478 9.55962 10.9211C9.36208 10.6064 9.27452 10.2303 9.3117 9.85609C9.34889 9.48191 9.50853 9.13253 9.76374 8.86683C10.2231 8.37038 10.478 7.70603 10.4738 7.01597C10.4696 6.3259 10.2068 5.66495 9.74146 5.17458L8.16021 3.52458C7.6868 3.03229 7.0457 2.75586 6.37735 2.75586C5.709 2.75586 5.0679 3.03229 4.59449 3.52458L4.13952 4.00008C1.76765 6.47508 1.94518 11.6786 6.88012 16.8251C9.85574 19.9308 12.8508 21.2313 15.2794 21.2313C15.9943 21.2562 16.7068 21.1323 17.3754 20.8669C18.044 20.6015 18.6553 20.1999 19.1736 19.6856L19.6293 19.2101C20.1019 18.7159 20.3673 18.0461 20.367 17.3479C20.3667 16.6497 20.1009 15.9801 19.6279 15.4863ZM18.6116 18.1496L18.1559 18.6251C16.2871 20.5751 12.1622 20.2188 7.89499 15.7653C3.62777 11.3118 3.28565 7.00458 5.1544 5.05458L5.60649 4.57983C5.81005 4.36819 6.08569 4.24936 6.37304 4.24936C6.66039 4.24936 6.93603 4.36819 7.13958 4.57983L8.72084 6.22983C8.92069 6.43942 9.03414 6.72222 9.03696 7.01788C9.03977 7.31353 8.93175 7.59863 8.73593 7.81233C8.25025 8.32235 7.9473 8.99105 7.87781 9.70638C7.80833 10.4217 7.97654 11.1402 8.35427 11.7416C9.24951 13.1395 10.4007 14.339 11.7417 15.2711C12.3163 15.6653 13.0031 15.8419 13.6874 15.7713C14.3717 15.7007 15.012 15.3873 15.5015 14.8833C15.7059 14.6766 15.9799 14.5618 16.2646 14.5636C16.5493 14.5654 16.8219 14.6837 17.0238 14.8931L18.6051 16.5431C18.707 16.6479 18.788 16.7727 18.8436 16.9103C18.8991 17.0479 18.928 17.1956 18.9286 17.3449C18.9292 17.4942 18.9015 17.6422 18.8471 17.7803C18.7927 17.9184 18.7126 18.0439 18.6116 18.1496Z" fill="#D4AD6B"/>
</svg>
