<svg width="15" height="15" viewBox="0 0 15 15" fill="none" xmlns="http://www.w3.org/2000/svg">
<g clip-path="url(#clip0_53_147)">
<path d="M14.9911 7.63938C14.9911 7.02484 14.9401 6.57639 14.8296 6.11133H7.64844V8.88507H11.8636C11.7787 9.57438 11.3198 10.6125 10.2999 11.31L10.2856 11.4029L12.5562 13.1218L12.7135 13.1371C14.1582 11.8333 14.9911 9.91486 14.9911 7.63938Z" fill="#4285F4"/>
<path d="M7.6492 14.9491C9.7143 14.9491 11.448 14.2847 12.7143 13.1387L10.3007 11.3116C9.65483 11.7518 8.78797 12.059 7.6492 12.059C5.62657 12.059 3.9099 10.7552 3.29795 8.95312L3.20825 8.96057L0.847282 10.7461L0.816406 10.83C2.07417 13.2715 4.65771 14.9491 7.6492 14.9491Z" fill="#34A853"/>
<path d="M3.29737 8.95176C3.13591 8.48671 3.04246 7.98839 3.04246 7.47352C3.04246 6.9586 3.13591 6.46033 3.28888 5.99528L3.2846 5.89623L0.894048 4.08203L0.815834 4.11839C0.29745 5.13157 0 6.26934 0 7.47352C0 8.6777 0.29745 9.81541 0.815834 10.8286L3.29737 8.95176Z" fill="#FBBC05"/>
<path d="M7.6492 2.89002C9.08542 2.89002 10.0542 3.49626 10.6066 4.00288L12.7653 1.9433C11.4395 0.739122 9.7143 0 7.6492 0C4.65771 0 2.07417 1.67754 0.816406 4.1191L3.28945 5.99599C3.9099 4.19387 5.62657 2.89002 7.6492 2.89002Z" fill="#EB4335"/>
</g>
<defs>
<clipPath id="clip0_53_147">
<rect width="15" height="15" fill="white"/>
</clipPath>
</defs>
</svg>
