<svg width="23" height="27" viewBox="0 0 23 27" fill="none" xmlns="http://www.w3.org/2000/svg">
<path d="M20.4444 2.7H19.1667V1.35C19.1667 0.6075 18.5917 0 17.8889 0C17.1861 0 16.6111 0.6075 16.6111 1.35V2.7H6.38889V1.35C6.38889 0.6075 5.81389 0 5.11111 0C4.40833 0 3.83333 0.6075 3.83333 1.35V2.7H2.55556C1.13722 2.7 0.0127778 3.915 0.0127778 5.4L0 24.3C0 25.785 1.13722 27 2.55556 27H20.4444C21.85 27 23 25.785 23 24.3V5.4C23 3.915 21.85 2.7 20.4444 2.7ZM20.4444 22.95C20.4444 23.6925 19.8694 24.3 19.1667 24.3H3.83333C3.13056 24.3 2.55556 23.6925 2.55556 22.95V9.45H20.4444V22.95ZM5.11111 12.15H7.66667V14.85H5.11111V12.15ZM10.2222 12.15H12.7778V14.85H10.2222V12.15ZM15.3333 12.15H17.8889V14.85H15.3333V12.15Z" fill="black"/>
</svg>
