<svg width="23" height="23" viewBox="0 0 23 23" fill="none" xmlns="http://www.w3.org/2000/svg">
<path fill-rule="evenodd" clip-rule="evenodd" d="M11.5052 0C5.16732 0 0 5.16 0 11.4969C0 17.8337 5.16836 23 11.5052 23C17.8421 23 23 17.8337 23 11.4969C23 5.16 17.8421 0 11.5052 0ZM11.5052 2.09034C12.741 2.08827 13.965 2.33019 15.1071 2.8022C16.2491 3.27422 17.2868 3.96705 18.1605 4.84097C19.0342 5.71488 19.7268 6.75269 20.1986 7.89486C20.6704 9.03703 20.912 10.2611 20.9097 11.4969C20.9121 12.733 20.6706 13.9574 20.199 15.1C19.7274 16.2426 19.0349 17.2808 18.1612 18.1553C17.2875 19.0297 16.2499 19.7231 15.1077 20.1958C13.9655 20.6684 12.7413 20.911 11.5052 20.9097C10.2686 20.9112 9.04381 20.6688 7.901 20.1963C6.75819 19.7238 5.71979 19.0306 4.84526 18.1562C3.97073 17.2819 3.27725 16.2436 2.80452 15.1009C2.33179 13.9582 2.0891 12.7335 2.09034 11.4969C2.09034 6.28983 6.29819 2.09034 11.5052 2.09034ZM11.4885 4.16605C11.3504 4.1674 11.2138 4.19613 11.0869 4.25057C10.9599 4.30502 10.845 4.38409 10.7488 4.48323C10.6525 4.58237 10.5769 4.6996 10.5263 4.82814C10.4757 4.95669 10.451 5.09399 10.4538 5.23212V11.4969C10.4544 11.6344 10.4821 11.7705 10.5353 11.8973C10.5886 12.0241 10.6664 12.1391 10.7642 12.2358L14.9449 16.4186C15.0416 16.5181 15.1571 16.5973 15.2848 16.6517C15.4125 16.7061 15.5497 16.7345 15.6884 16.7353C15.8272 16.7361 15.9647 16.7093 16.093 16.6564C16.2213 16.6035 16.3377 16.5255 16.4356 16.4271C16.5334 16.3287 16.6107 16.2118 16.6629 16.0833C16.7151 15.9547 16.7411 15.817 16.7395 15.6783C16.738 15.5395 16.7088 15.4025 16.6536 15.2751C16.5985 15.1478 16.5186 15.0327 16.4186 14.9365L12.5462 11.0642V5.23212C12.549 5.09205 12.5237 4.95285 12.4716 4.82279C12.4195 4.69273 12.3419 4.57446 12.2432 4.47501C12.1445 4.37556 12.0269 4.29696 11.8972 4.24388C11.7676 4.19081 11.6286 4.16434 11.4885 4.16605Z" fill="black"/>
</svg>
