<svg width="15" height="15" viewBox="0 0 15 15" fill="none" xmlns="http://www.w3.org/2000/svg">
<path d="M8.63115 7.33708L14.4061 1.57125C14.5788 1.39864 14.6757 1.16453 14.6757 0.920417C14.6757 0.676308 14.5788 0.442196 14.4061 0.269584C14.2335 0.0969723 13.9994 0 13.7553 0C13.5112 0 13.2771 0.0969723 13.1045 0.269584L7.33865 6.04458L1.57282 0.269584C1.4002 0.0969723 1.16609 2.16732e-07 0.921982 2.1855e-07C0.677872 2.20369e-07 0.44376 0.0969723 0.271148 0.269584C0.0985367 0.442196 0.0015646 0.676308 0.0015646 0.920417C0.0015646 1.16453 0.0985367 1.39864 0.271148 1.57125L6.04615 7.33708L0.271148 13.1029C0.185231 13.1881 0.117036 13.2895 0.0704982 13.4012C0.0239603 13.5129 0 13.6327 0 13.7537C0 13.8748 0.0239603 13.9946 0.0704982 14.1063C0.117036 14.218 0.185231 14.3194 0.271148 14.4046C0.356364 14.4905 0.457749 14.5587 0.569453 14.6052C0.681157 14.6518 0.800971 14.6757 0.921982 14.6757C1.04299 14.6757 1.16281 14.6518 1.27451 14.6052C1.38621 14.5587 1.4876 14.4905 1.57282 14.4046L7.33865 8.62958L13.1045 14.4046C13.1897 14.4905 13.2911 14.5587 13.4028 14.6052C13.5145 14.6518 13.6343 14.6757 13.7553 14.6757C13.8763 14.6757 13.9961 14.6518 14.1078 14.6052C14.2195 14.5587 14.3209 14.4905 14.4061 14.4046C14.4921 14.3194 14.5603 14.218 14.6068 14.1063C14.6533 13.9946 14.6773 13.8748 14.6773 13.7537C14.6773 13.6327 14.6533 13.5129 14.6068 13.4012C14.5603 13.2895 14.4921 13.1881 14.4061 13.1029L8.63115 7.33708Z" fill="#D4AD6B"/>
</svg>
