<svg width="31" height="32" viewBox="0 0 31 32" fill="none" xmlns="http://www.w3.org/2000/svg">
<path d="M26.4081 26.5641H21.823V19.3296C21.823 17.6045 21.7872 15.3875 19.4254 15.3875C17.0345 15.3875 16.6702 17.2587 16.6702 19.202V26.5631H12.0793V11.688H16.4891V13.717H16.5482C17.1643 12.5452 18.663 11.313 20.8988 11.313C25.5498 11.313 26.413 14.392 26.413 18.3955V26.5631L26.4081 26.5641ZM6.89266 9.65507C5.41337 9.65507 4.22762 8.45208 4.22762 6.97051C4.22762 5.4938 5.41822 4.29277 6.89266 4.29277C8.36709 4.29277 9.56156 5.4938 9.56156 6.97051C9.56156 8.45208 8.36709 9.65507 6.89266 9.65507ZM9.19247 26.5641H4.59187V11.6889H9.19247V26.5641ZM28.7099 0H2.28625C1.02397 0 0 1.00428 0 2.2472V28.9243C0 30.1672 1.02397 31.1715 2.28625 31.1715H28.705C29.9654 31.1715 31 30.1672 31 28.9243V2.2472C31 1.00428 29.9654 0 28.705 0L28.7099 0Z" fill="white"/>
</svg>
