<svg width="36" height="32" viewBox="0 0 36 32" fill="none" xmlns="http://www.w3.org/2000/svg">
<path d="M35.9314 3.80004C34.6073 4.43277 33.1898 4.86807 31.6958 5.06549C33.2201 4.06858 34.3856 2.49167 34.9414 0.613107C33.5115 1.52051 31.9298 2.17776 30.2479 2.5493C28.9069 0.98465 26.9899 0 24.8625 0C20.7844 0 17.4791 3.60139 17.4791 8.04029C17.4791 8.67915 17.55 9.29226 17.6726 9.87348C11.538 9.5608 6.09975 6.34811 2.46263 1.49476C1.82363 2.67683 1.46025 4.05019 1.46025 5.54494C1.46025 8.34194 2.76637 10.7944 4.74075 12.2364C3.53362 12.1984 2.39737 11.8342 1.40175 11.2346V11.3314C1.40175 15.232 3.94425 18.484 7.31925 19.2246C6.70388 19.4024 6.04688 19.5054 5.37975 19.5054C4.90613 19.5054 4.45388 19.4551 4.00275 19.3644C4.95225 22.5574 7.67025 24.8824 10.9102 24.9522C8.39137 27.1043 5.19863 28.3869 1.75837 28.3869C1.17225 28.3869 0.58725 28.3562 0 28.279C3.28163 30.5597 7.155 31.8938 11.3389 31.8938C24.9142 31.8938 32.3325 19.6378 32.3325 9.02371C32.3325 8.68528 32.3325 8.34071 32.3089 7.99492C33.7567 6.87048 35.01 5.44562 36 3.83069L35.9314 3.80004Z" fill="white"/>
</svg>
