<svg width="18" height="24" viewBox="0 0 18 24" fill="none" xmlns="http://www.w3.org/2000/svg">
<path fill-rule="evenodd" clip-rule="evenodd" d="M9 0C4.03364 0 0 3.97641 0 8.87402C0 11.772 1.35408 14.7728 3.0109 17.3208C5.42454 21.0408 8.44364 23.7864 8.44364 23.7864C8.75864 24.0716 9.24136 24.0712 9.55636 23.7848C9.55636 23.7848 12.5755 21.0272 14.9891 17.3052C16.6459 14.7556 18 11.7572 18 8.87402C18 3.97641 13.9664 0 9 0ZM9 1.6136C13.0623 1.6136 16.3636 4.86681 16.3636 8.87402C16.3636 11.4652 15.0996 14.144 13.6146 16.4356C11.9332 19.0252 9.945 21.1248 9 22.0664C8.05091 21.1284 6.06681 19.0368 4.38544 16.4508C2.90044 14.1604 1.63636 11.4788 1.63636 8.87402C1.63636 4.86681 4.93773 1.6136 9 1.6136ZM9 5.20001C6.96682 5.20001 5.31818 6.81321 5.31818 8.80002C5.31818 10.7868 6.96682 12.4 9 12.4C11.0332 12.4 12.6818 10.7868 12.6818 8.80002C12.6818 6.81321 11.0332 5.20001 9 5.20001ZM9 6.80001C10.1291 6.80001 11.0455 7.69602 11.0455 8.80002C11.0455 9.90402 10.1291 10.8 9 10.8C7.87091 10.8 6.95455 9.90402 6.95455 8.80002C6.95455 7.69602 7.87091 6.80001 9 6.80001Z" fill="#D4AD6B"/>
</svg>
