<svg width="26" height="26" viewBox="0 0 26 26" fill="none" xmlns="http://www.w3.org/2000/svg">
<g clip-path="url(#clip0_21_4)">
<path d="M10.6623 14.9014C10.8068 15.0381 10.9997 15.1118 11.1986 15.1062C11.3974 15.1007 11.5859 15.0164 11.7226 14.8719L14.8148 11.6027C14.9515 11.4582 15.0252 11.2653 15.0197 11.0664C15.0142 10.8676 14.9299 10.6791 14.7853 10.5424C14.6408 10.4057 14.448 10.3321 14.2491 10.3376C14.0503 10.3431 13.8618 10.4274 13.7251 10.5719L10.6328 13.8412C10.4961 13.9857 10.4225 14.1786 10.428 14.3774C10.4335 14.5762 10.5178 14.7647 10.6623 14.9014ZM13.3277 15.3578L11.7816 16.9924C11.3715 17.4259 10.806 17.6788 10.2095 17.6954C9.61302 17.712 9.03435 17.491 8.60082 17.0809C8.16729 16.6708 7.91442 16.1053 7.89782 15.5088C7.88123 14.9123 8.10228 14.3337 8.51234 13.9001L10.0585 12.2655C10.1952 12.121 10.2688 11.9281 10.2633 11.7293C10.2578 11.5305 10.1735 11.342 10.029 11.2053C9.88446 11.0686 9.69157 10.9949 9.49274 11.0004C9.2939 11.006 9.10541 11.0903 8.96872 11.2348L7.42259 12.8694C6.73916 13.5919 6.37075 14.5564 6.3984 15.5506C6.42606 16.5447 6.84752 17.4872 7.57007 18.1706C8.29261 18.8541 9.25706 19.2225 10.2512 19.1948C11.2454 19.1672 12.1879 18.7457 12.8713 18.0232L14.4174 16.3885C14.5541 16.244 14.6278 16.0511 14.6223 15.8523C14.6168 15.6535 14.5325 15.465 14.388 15.3283C14.2434 15.1916 14.0506 15.1179 13.8517 15.1235C13.6529 15.129 13.4644 15.2133 13.3277 15.3578ZM12.5764 7.42066L11.0302 9.05528C10.8935 9.19979 10.8199 9.39268 10.8254 9.59151C10.8309 9.79035 10.9152 9.97884 11.0597 10.1155C11.2042 10.2522 11.3971 10.3259 11.596 10.3204C11.7948 10.3148 11.9833 10.2305 12.12 10.086L13.6661 8.45142C14.0762 8.01789 14.6417 7.76501 15.2382 7.74842C15.8347 7.73182 16.4133 7.95287 16.8469 8.36293C17.2804 8.77299 17.5333 9.33847 17.5499 9.93498C17.5665 10.5315 17.3454 11.1102 16.9353 11.5437L15.3892 13.1783C15.2525 13.3228 15.1788 13.5157 15.1844 13.7145C15.1899 13.9134 15.2742 14.1019 15.4187 14.2385C15.5632 14.3752 15.7561 14.4489 15.9549 14.4434C16.1538 14.4379 16.3423 14.3536 16.479 14.2091L18.0251 12.5744C18.7085 11.8519 19.0769 10.8874 19.0493 9.89327C19.0216 8.89909 18.6002 7.95662 17.8776 7.27319C17.1551 6.58975 16.1906 6.22134 15.1964 6.249C14.2023 6.27666 13.2598 6.69812 12.5764 7.42066Z" fill="#686868"/>
</g>
<defs>
<clipPath id="clip0_21_4">
<rect width="18" height="18" fill="white" transform="translate(0 13.0762) rotate(-46.5935)"/>
</clipPath>
</defs>
</svg>
