<svg width="16" height="17" viewBox="0 0 16 17" fill="none" xmlns="http://www.w3.org/2000/svg">
<g clip-path="url(#clip0_141_828)">
<path d="M10.3338 9.91711H9.80708L9.62042 9.72586C10.4204 8.73419 10.8338 7.38128 10.6071 5.94336C10.2938 3.97419 8.74708 2.40169 6.88042 2.16086C4.06042 1.79253 1.68708 4.31419 2.03375 7.31044C2.26042 9.29378 3.74042 10.9371 5.59375 11.27C6.94708 11.5109 8.22042 11.0717 9.15375 10.2217L9.33375 10.42V10.9796L12.1671 13.99C12.4404 14.2804 12.8871 14.2804 13.1604 13.99C13.4338 13.6996 13.4338 13.225 13.1604 12.9346L10.3338 9.91711ZM6.33375 9.91711C4.67375 9.91711 3.33375 8.49336 3.33375 6.72961C3.33375 4.96586 4.67375 3.54211 6.33375 3.54211C7.99375 3.54211 9.33375 4.96586 9.33375 6.72961C9.33375 8.49336 7.99375 9.91711 6.33375 9.91711Z" fill="#514127"/>
</g>
<defs>
<clipPath id="clip0_141_828">
<rect width="16" height="17" fill="white"/>
</clipPath>
</defs>
</svg>
