<svg width="17" height="18" viewBox="0 0 17 18" fill="none" xmlns="http://www.w3.org/2000/svg">
<path d="M5.03591 8.64075L4.53299 12.3457C4.48057 12.7882 4.73841 13.2007 5.34049 13.2007L8.83965 12.6682C8.99227 12.6468 9.13407 12.573 9.24341 12.4583C9.29936 12.399 14.7897 6.591 14.8392 6.52575C17.2773 3.67425 13.4403 -0.216 10.8372 2.28825C10.7755 2.34075 5.28949 8.15475 5.23424 8.21325C5.12584 8.32902 5.05619 8.47915 5.03591 8.64075ZM12.7497 3.01575C12.9352 3.01316 13.1193 3.04969 13.2914 3.12322C13.4634 3.19674 13.62 3.30579 13.7518 3.444C13.8837 3.58222 13.9882 3.74683 14.0594 3.92826C14.1306 4.10969 14.1669 4.3043 14.1663 4.50075C14.1668 4.82079 14.0671 5.13197 13.883 5.38575L11.9138 3.30075C12.1554 3.11127 12.4491 3.01112 12.7497 3.01575ZM6.40299 9.09825L10.8938 4.35075L12.8913 6.46575L8.40757 11.2207L6.07007 11.5732L6.40299 9.09825Z" fill="black"/>
<path d="M13.4587 9.84375V12.75C13.4581 13.3466 13.234 13.9185 12.8356 14.3403C12.4372 14.7622 11.8971 14.9994 11.3337 15H4.95866C4.39525 14.9994 3.85507 14.7622 3.45668 14.3403C3.05829 13.9185 2.83422 13.3466 2.83366 12.75V6C2.83422 5.40345 3.05829 4.8315 3.45668 4.40967C3.85507 3.98784 4.39525 3.7506 4.95866 3.75H7.77003C7.9579 3.75 8.13806 3.67098 8.2709 3.53033C8.40374 3.38968 8.47837 3.19891 8.47837 3C8.47837 2.80109 8.40374 2.61032 8.2709 2.46967C8.13806 2.32902 7.9579 2.25 7.77003 2.25H4.95866C4.0197 2.25119 3.11951 2.64666 2.45556 3.34966C1.79162 4.05267 1.41812 5.0058 1.41699 6V12.75C1.41812 13.7442 1.79162 14.6973 2.45556 15.4003C3.11951 16.1033 4.0197 16.4988 4.95866 16.5H11.3337C12.2726 16.4988 13.1728 16.1033 13.8368 15.4003C14.5007 14.6973 14.8742 13.7442 14.8753 12.75V9.84375C14.8753 9.64484 14.8007 9.45407 14.6679 9.31342C14.535 9.17277 14.3549 9.09375 14.167 9.09375C13.9791 9.09375 13.799 9.17277 13.6661 9.31342C13.5333 9.45407 13.4587 9.64484 13.4587 9.84375Z" fill="black"/>
</svg>
